Coordinates
version=1
nRows=17
nColumns=36
inDegrees=yes

Units are S.I. units (second, meters, Newtons, ...)
If the header above contains a line with 'inDegrees', this indicates whether rotational values are in degrees (yes) or radians (no).

endheader
time	pelvis_tilt	pelvis_list	pelvis_rotation	pelvis_tx	pelvis_ty	pelvis_tz	hip_flexion_r	hip_adduction_r	hip_rotation_r	knee_angle_r	knee_angle_r_beta	ankle_angle_r	subtalar_angle_r	mtp_angle_r	hip_flexion_l	hip_adduction_l	hip_rotation_l	knee_angle_l	knee_angle_l_beta	ankle_angle_l	subtalar_angle_l	mtp_angle_l	lumbar_extension	lumbar_bending	lumbar_rotation	arm_flex_r	arm_add_r	arm_rot_r	elbow_flex_r	pro_sup_r	arm_flex_l	arm_add_l	arm_rot_l	elbow_flex_l	pro_sup_l
      2.23333330	      3.08389906	     -2.47238695	     -0.63605012	      0.22598435	      0.99329666	     -0.05049319	     -2.65800199	      2.63501204	     -7.23541679	      0.77758045	      0.01357134	      9.30516633	      2.76567167	     -7.49999987	     -1.11965641	     -4.04995922	    -14.11772512	      1.99583241	      0.03483385	      8.54700672	     10.46554180	     -7.49999987	     -4.41784570	      4.89791663	      1.85440626	     14.58275225	     -0.92023467	    -22.30736483	     94.12018323	     61.75723258	      4.38430592	     -8.80572179	     45.19064285	     16.44963445	     49.61722996
      2.25000000	      3.08012831	     -2.42881257	     -0.64862391	      0.22766134	      0.99871742	     -0.05028500	     -2.68297926	      2.52657963	     -7.16181527	      0.77284079	      0.01348862	      9.11370370	      2.66626371	     -7.49999987	     -1.18003273	     -3.96444189	    -14.08069894	      1.93206722	      0.03372093	      8.34444865	     10.33994263	     -7.49999987	     -4.41317017	      4.88128437	      2.11197291	     14.21284833	     -1.04362818	    -23.51859315	     91.86243167	     61.77882709	      4.36226509	     -8.56768399	     45.53820885	     15.99350815	     49.44626454
      2.26666670	      3.12869865	     -2.39857342	     -0.62771314	      0.23024098	      0.99900765	     -0.05259430	     -2.84928423	      2.40349903	     -7.20297131	      0.75289279	      0.01314046	      8.96249022	      2.70273602	     -7.49999987	     -1.33872468	     -3.85723472	    -14.01155820	      1.86448219	      0.03254135	      8.26763945	     10.15550162	     -7.49999987	     -4.36804737	      4.92037734	      1.99494007	     14.17202047	     -1.20317976	    -24.22520473	     89.24610553	     61.86918451	      4.01738587	     -8.11402369	     44.24671170	     15.13957001	     50.91650473
      2.28333330	      3.11814409	     -2.35067196	     -0.61464748	      0.23116045	      1.00041662	     -0.05156437	     -2.96891467	      2.32432308	     -7.29276459	      0.75129446	      0.01311256	      8.81973331	      2.72124818	     -7.49999987	     -1.44585504	     -3.76948580	    -13.95018542	      1.83245609	      0.03198239	      8.13175973	     10.03960931	     -7.49999987	     -4.29202112	      4.88778417	      2.09277410	     13.95885268	     -1.15946681	    -25.17168296	     86.93537191	     62.01242370	      3.77721289	     -7.65938185	     42.56506719	     14.17445869	     52.82134073
      2.30000000	      3.20286483	     -2.36112658	     -0.57303109	      0.22876207	      0.99809830	     -0.05136228	     -3.11696415	      2.29665740	     -7.15151797	      0.69056287	      0.01205260	      8.80008953	      2.63352116	     -7.49999987	     -1.61067338	     -3.72434771	    -13.83091485	      1.77707800	      0.03101586	      8.13610973	     10.01118782	     -7.49999987	     -4.41115040	      4.92836037	      2.39007106	     13.86503781	     -1.14343611	    -26.29319835	     84.74196705	     62.23642034	      3.75204151	     -7.47123026	     42.83669412	     13.83091229	     52.43421085
      2.31666670	      3.25233175	     -2.35147048	     -0.50116957	      0.22765991	      0.99887980	     -0.05174431	     -3.19185999	      2.28398971	     -7.22774047	      0.64381472	      0.01123669	      8.75826226	      2.71298812	     -7.49999987	     -1.71441348	     -3.67110930	    -13.69217634	      1.69004115	      0.02949678	      8.07231220	     10.04758749	     -7.49999987	     -4.51875882	      4.91362359	      2.63221092	     13.82439586	     -1.09599713	    -27.36715829	     82.39871604	     64.09525863	      3.88281081	     -7.16927687	     42.83639423	     13.15276381	     51.50390007
      2.33333330	      3.28474488	     -2.33965759	     -0.48658704	      0.22724661	      1.00546257	     -0.05129521	     -3.17868543	      2.24020582	     -7.18780230	      0.57433151	      0.01002398	      8.55587171	      2.76228225	     -7.49999987	     -1.75983822	     -3.62393132	    -13.61864041	      1.59257199	      0.02779562	      7.78933201	     10.05836578	     -7.49999987	     -4.69859635	      4.86650425	      2.88704793	     13.69760826	     -1.11940892	    -28.23368835	     80.07448648	     64.02242278	      4.07417308	     -6.97968074	     42.77031753	     12.77148358	     51.31011363
      2.35000000	      3.26145882	     -2.35761781	     -0.40469479	      0.22755874	      1.00543697	     -0.05190822	     -3.13336865	      2.24902515	     -7.18229786	      0.50966121	      0.00889527	      8.29225859	      2.77652182	     -7.49999987	     -1.73345659	     -3.63304345	    -13.44157081	      1.52383283	      0.02659590	      7.52427674	     10.15766131	     -7.49999987	     -4.71051216	      4.87419913	      2.52093133	     13.88097320	     -0.96515326	    -28.77149652	     77.37315370	     63.55189631	      3.93896999	     -6.56897708	     40.16511767	     11.92543734	     52.38376688
      2.36666670	      3.29953360	     -2.38902529	     -0.32101064	      0.22863352	      1.00483209	     -0.05165907	     -3.14509254	      2.25373118	     -7.24174883	      0.45690122	      0.00797443	      8.11807285	      2.96433888	     -7.49999987	     -1.77568319	     -3.64503198	    -13.37464572	      1.44771652	      0.02526742	      7.23739609	     10.22080744	     -7.49999987	     -4.87137941	      4.89255462	      2.88004649	     13.66438599	     -0.96222321	    -30.05478761	     75.41082682	     63.68140105	      4.18032468	     -6.41082107	     39.93157899	     11.65343887	     52.14666424
      2.38333330	      3.26664470	     -2.41305292	     -0.21164174	      0.22730532	      1.00083947	     -0.05131429	     -3.08789255	      2.28746825	     -7.43100356	      0.41767144	      0.00728974	      7.99961024	      3.08466782	     -7.49999987	     -1.70790452	     -3.68003729	    -13.20351952	      1.44852086	      0.02528146	      7.17770297	     10.30267937	     -7.49999987	     -4.89250816	      4.89997584	      3.11783727	     13.57835252	     -0.93816266	    -31.21705303	     73.33447613	     64.31814982	      4.39363955	     -6.07651195	     38.35189275	     10.99935671	     51.66114318
      2.40000000	      3.37469776	     -2.46684488	     -0.09295620	      0.22819845	      1.00041380	     -0.05138145	     -3.25003674	      2.37502875	     -7.60627940	      0.40911714	      0.00714044	      7.98005733	      3.17133212	     -7.49999987	     -1.81382715	     -3.75018252	    -13.15432267	      1.39642925	      0.02437229	      7.20627017	     10.45061133	     -7.49999987	     -5.10144481	      4.97611594	      3.20061407	     13.61178178	     -0.87364430	    -32.20082858	     71.09320493	     66.60439599	      4.29712876	     -5.85224868	     34.20888106	     11.29382933	     51.10469403
      2.41666670	      3.44204630	     -2.47757721	     -0.01692654	      0.22548768	      0.99914169	     -0.04931150	     -3.34069407	      2.45001000	     -7.94994766	      0.41679714	      0.00727448	      8.17521135	      3.45734866	     -7.49999987	     -1.83242284	     -3.80592416	    -13.20562868	      1.37242304	      0.02395330	      7.31198864	     10.69219699	     -7.49999987	     -5.29178557	      4.94741585	      3.60618970	     13.54566410	     -1.00098252	    -32.85449846	     69.03265607	     66.43579101	      4.54446626	     -5.74344608	     33.23583690	     11.29928995	     51.25586087
      2.43333330	      3.45944769	     -2.52361685	      0.06194668	      0.22341984	      0.99435969	     -0.04853376	     -3.31273968	      2.58018807	     -7.97189407	      0.41025598	      0.00716032	      8.29120902	      3.22984818	     -7.49999987	     -1.72728950	     -3.89174172	    -13.02953765	      1.39267427	      0.02430675	      7.30942933	     10.35645881	     -7.49999987	     -5.47018421	      4.93950961	      4.08967759	     13.80456272	     -1.09909903	    -33.88055823	     66.56446457	     66.72582174	      4.95625377	     -5.62570190	     31.08122669	     11.23996813	     51.20571311
      2.45000000	      3.36793065	     -2.54130003	      0.11818853	      0.22083847	      0.99574079	     -0.04857579	     -3.15367166	      2.66425459	     -8.04845491	      0.43451987	      0.00758380	      8.28453261	      3.05971664	     -7.49999987	     -1.47919748	     -3.98433941	    -13.06737399	      1.47433123	      0.02573193	      7.42203383	     10.48989550	     -7.49999987	     -5.50614699	      4.89952882	      4.10515621	     14.15119802	     -1.09493857	    -34.35049073	     63.86802239	     70.21509934	      4.60592999	     -5.21769364	     22.62683418	     11.96448615	     51.29832373
      2.46666670	      3.40243309	     -2.58004429	      0.24475909	      0.21955997	      0.99687657	     -0.04865887	     -3.08327659	      2.75344961	     -8.42509388	      0.45103027	      0.00787196	      8.43444876	      3.23902567	     -7.49999987	     -1.34301476	     -4.06291765	    -12.68614414	      1.51300046	      0.02640684	      7.39443535	     10.04870188	     -7.49999987	     -5.74008200	      4.91215123	      4.38951871	     14.29978467	     -1.21554818	    -34.71670329	     61.58377107	     69.66523705	      4.84578657	     -5.19794238	     21.45948546	     12.25663534	     52.13396966
      2.48333330	      3.31349315	     -2.62496949	      0.25460011	      0.22200718	      0.99756902	     -0.04856551	     -2.90168971	      2.81655967	     -8.23525824	      0.44431270	      0.00775472	      8.23582516	      2.85466308	     -7.49999987	     -1.12009779	     -4.16738624	    -12.95062186	      1.63364423	      0.02851247	      7.52789895	     10.51502165	     -7.49999987	     -5.76613475	      4.95680118	      4.50904989	     14.53568191	     -1.23794146	    -35.53095199	     58.96092460	     74.18820396	      4.67768510	     -4.66976289	     13.67742174	     12.68062123	     54.96009750
      2.50000000	      3.27371952	     -2.70220827	      0.28081422	      0.21835486	      0.99611935	     -0.04569135	     -2.78438264	      2.95686756	     -8.32451218	      0.45962558	      0.00802198	      8.20739432	      2.88411310	     -7.49999987	     -0.93109250	     -4.33021423	    -12.93362442	      1.72950410	      0.03018554	      7.67215691	     10.43602319	     -7.49999987	     -5.96227470	      4.98528391	      5.21749455	     14.33313321	     -1.51177049	    -35.98228776	     57.18439352	     74.26501489	      5.15808493	     -4.63540070	     13.45242579	     12.92507465	     55.18926127
